<?xml version="1.0" standalone="no"?>
<!DOCTYPE svg PUBLIC "-//W3C//DTD SVG 20010904//EN"
 "http://www.w3.org/TR/2001/REC-SVG-20010904/DTD/svg10.dtd">
<svg version="1.0" xmlns="http://www.w3.org/2000/svg"
 width="64.000000pt" height="64.000000pt" viewBox="0 0 64.000000 64.000000"
 preserveAspectRatio="xMidYMid meet">

<g transform="translate(0.000000,64.000000) scale(0.100000,-0.100000)"
fill="#000000" stroke="none">
<path d="M155 541 c-74 -26 -122 -110 -145 -258 -18 -112 -12 -126 76 -169 72
-36 75 -37 89 -18 20 26 19 31 -11 47 -41 22 -11 30 41 12 59 -19 172 -19 231
1 53 18 70 11 35 -15 -21 -16 -22 -20 -10 -39 16 -26 28 -23 110 20 45 23 58
36 63 59 8 42 -10 156 -34 222 -35 92 -58 119 -124 141 -55 18 -60 18 -71 3
-17 -23 -160 -25 -169 -2 -7 19 -19 18 -81 -4z m99 -197 c35 -35 9 -114 -38
-114 -56 1 -82 70 -44 118 14 17 63 15 82 -4z m217 0 c34 -41 6 -114 -45 -114
-49 0 -76 78 -40 114 20 21 68 20 85 0z"/>
</g>
</svg>
